# xmcd
#
# Track frame offsets:
#	150
#	12037
#	24915
#	35912
#	47327
#	58935
#	69810
#	80877
#
# Disc length: 1249 seconds
#
# Revision: 3
# Processed by: cddbd v1.5.1PL0 Copyright (c) Steve Scherf et al.
# Submitted via: audiograbber 1.83.01
#
DISCID=5e04df08
DTITLE=Kitty Wells - Greatest Hits
DYEAR=1995
DGENRE=Country
TTITLE0=It Wasn't God Who Made Honky Tonk Angels
TTITLE1=Making Believe
TTITLE2=Paying For That Back Street Affair
TTITLE3=This White Circle on Finger
TTITLE4=She's No Angel
TTITLE5=Mommy For A Day
TTITLE6=Meanwhile Down At Joe's
TTITLE7=I Don't Claim To Be An Angel
EXTD=
EXTT0=
EXTT1=
EXTT2=
EXTT3=
EXTT4=
EXTT5=
EXTT6=
EXTT7=
PLAYORDER=
